<svg width="28" height="28" viewBox="0 0 28 28" fill="none" xmlns="http://www.w3.org/2000/svg">
<path d="M27.1685 24.906C27.1685 24.906 27.4376 24.9026 27.6168 25.0356C27.6168 25.0356 28.1513 23.9498 26.2319 22.017C26.2319 22.017 26.4976 21.8974 26.8462 22.0136C26.8462 22.0136 26.7919 20.3588 24.7994 18.8446C24.7994 18.8446 25.0928 18.7373 25.2387 18.7925C25.2387 18.7925 24.4651 17.3146 22.4524 16.5245C22.4524 16.5245 22.7512 16.354 23.1298 16.3607C23.1298 16.3607 21.6287 14.5762 19.0208 14.7314C19.0208 14.7314 19.158 14.572 19.4368 14.4724C19.4368 14.4724 19.016 14.187 18.013 14.0624C17.4791 13.9434 16.8023 13.9121 16.8023 13.9121C17.0207 13.9059 17.4777 13.7774 17.744 13.697C18.8455 13.5789 19.9109 13.2941 20.4247 12.6756C20.4247 12.6756 20.2032 12.7464 19.8868 12.4432C19.8868 12.4432 22.1694 12.224 23.8342 10.0366C23.8342 10.0366 23.2586 10.2656 22.915 10.0248C22.915 10.0248 24.9822 9.19634 25.4736 7.68206C25.4736 7.68206 25.0819 7.93437 24.6252 7.87977C24.6252 7.87977 25.8889 7.00814 26.3604 5.50703C26.3604 5.50703 25.9718 5.71397 25.6663 5.5902C25.6663 5.5902 27.1209 4.5542 26.9249 3.00328C26.9249 3.00328 26.6958 3.35524 26.2176 3.23232C26.2176 3.23232 27.7397 1.5708 27.0976 0.00784247C27.0976 0.00784247 25.9687 -0.138317 24.9458 0.831324C24.9458 0.831324 24.9425 0.562244 25.0755 0.383043C25.0755 0.383043 23.9896 -0.151478 22.0568 1.76792C22.0568 1.76792 21.9372 1.5022 22.0534 1.1536C22.0534 1.1536 20.3986 1.20792 18.8844 3.2004C18.8844 3.2004 18.7772 2.90696 18.8323 2.76108C18.8323 2.76108 17.3545 3.53472 16.5643 5.54737C16.5643 5.54737 16.3938 5.2486 16.4005 4.87003C16.4005 4.87003 14.6161 6.37114 14.7712 8.97903C14.7712 8.97903 14.6119 8.84183 14.5122 8.56297C14.5122 8.56297 14.3033 8.87097 14.1647 9.58803C14.0289 10.2183 13.9648 11.1012 13.9648 11.1012C13.9684 10.6316 13.7215 9.81063 13.6212 9.49703C13.472 8.60523 13.1886 7.79883 12.6754 7.3724C12.6754 7.3724 12.7462 7.59386 12.443 7.91026C12.443 7.91026 12.2238 5.62774 10.0364 3.96284C10.0364 3.96284 10.2654 4.53854 10.0246 4.88206C10.0246 4.88206 9.19613 2.81484 7.68189 2.32344C7.68189 2.32344 7.93416 2.71516 7.87956 3.17184C7.87956 3.17184 7.00793 1.9082 5.50682 1.43668C5.50682 1.43668 5.71376 1.82532 5.58973 2.1308C5.58973 2.1308 4.55373 0.676204 3.00279 0.872204C3.00279 0.872204 3.35475 1.10124 3.23183 1.57948C3.23183 1.57948 1.57031 0.0574025 0.00735425 0.699444C0.00735425 0.699444 -0.138806 1.8284 0.830833 2.85124C0.830833 2.85124 0.561753 2.8546 0.382554 2.7216C0.382554 2.7216 -0.151966 3.80744 1.76743 5.74026C1.76743 5.74026 1.50171 5.85983 1.15311 5.74363C1.15311 5.74363 1.20743 7.39843 3.19991 8.91266C3.19991 8.91266 2.90647 9.01994 2.76059 8.96477C2.76059 8.96477 3.53423 10.4426 5.54689 11.2328C5.54689 11.2328 5.24813 11.4033 4.86956 11.3966C4.86956 11.3966 6.37062 13.181 8.97856 13.0259C8.97856 13.0259 8.84136 13.1852 8.56249 13.2849C8.56249 13.2849 8.76182 13.4198 9.21153 13.5444C9.80679 13.7698 11.7825 13.841 11.7825 13.841C11.477 13.8928 11.0251 14.0176 10.5586 14.1613C9.36356 14.2607 8.16153 14.539 7.60542 15.2085C7.60542 15.2085 7.82693 15.1376 8.14333 15.4409C8.14333 15.4409 5.86076 15.6601 4.19587 17.8475C4.19587 17.8475 4.77156 17.6184 5.11513 17.8592C5.11513 17.8592 3.04787 18.6878 2.55647 20.202C2.55647 20.202 2.94819 19.9497 3.40487 20.0043C3.40487 20.0043 2.14123 20.876 1.66971 22.377C1.66971 22.377 2.05835 22.1701 2.36383 22.2939C2.36383 22.2939 0.909233 23.3299 1.10523 24.8808C1.10523 24.8808 1.33427 24.5288 1.81251 24.6518C1.81251 24.6518 0.290434 26.3133 0.932473 27.8762C0.932473 27.8762 2.06143 28.0224 3.08427 27.0528C3.08427 27.0528 3.08763 27.3218 2.95463 27.501C2.95463 27.501 4.04047 28.0356 5.97333 26.1162C5.97333 26.1162 6.09289 26.3819 5.97669 26.7305C5.97669 26.7305 7.63149 26.6762 9.14573 24.6837C9.14573 24.6837 9.25296 24.9771 9.19779 25.123C9.19779 25.123 10.6756 24.3494 11.4658 22.3367C11.4658 22.3367 11.6363 22.6355 11.6296 23.014C11.6296 23.014 13.414 21.513 13.2589 18.905C13.2589 18.905 13.4182 19.0422 13.5179 19.3211C13.5179 19.3211 14.055 18.529 13.9768 16.5273C14.0846 16.9428 14.1978 17.3432 14.3019 17.696C14.4195 18.8003 14.704 19.8694 15.3242 20.3843C15.3242 20.3843 15.2534 20.1628 15.5566 19.8464C15.5566 19.8464 15.7758 22.129 17.9632 23.7938C17.9632 23.7938 17.7342 23.2182 17.975 22.8746C17.975 22.8746 18.8035 24.9418 20.3177 25.4332C20.3177 25.4332 20.0654 25.0415 20.12 24.5848C20.12 24.5848 20.9917 25.8485 22.4928 26.32C22.4928 26.32 22.2858 25.9314 22.4099 25.6259C22.4099 25.6259 23.4459 27.0805 24.9968 26.8845C24.9968 26.8845 24.6448 26.6554 24.7678 26.1772C24.7678 26.1772 26.4293 27.6993 27.9922 27.0572C27.9922 27.0572 28.1384 25.9283 27.1688 24.9054L27.1685 24.906ZM13.9878 14.4945C10.672 16.597 4.04999 23.933 4.04999 23.933C5.00199 21.5662 10.1562 15.8603 13.6417 13.902C11.5056 10.5731 4.22891 4.00484 4.22891 4.00484C6.59129 4.95486 12.2795 10.0912 14.2484 13.5764C17.7932 11.5612 24.152 4.0082 24.152 4.0082C23.8558 5.87326 17.7437 12.353 14.562 14.1616C16.5411 17.698 24.1537 24.1069 24.1537 24.1069C22.2842 23.8098 15.7784 17.6697 13.9878 14.4945Z" fill="url(#paint0_linear_2401_884)"/>
<defs>
<linearGradient id="paint0_linear_2401_884" x1="0.389834" y1="0.316963" x2="27.5616" y2="27.4884" gradientUnits="userSpaceOnUse">
<stop offset="0.2" stop-color="#00FF85"/>
<stop offset="1" stop-color="#00E0FF"/>
</linearGradient>
</defs>
</svg>
